<mxfile host="app.diagrams.net" modified="2023-08-07T07:29:40.113Z" agent="Mozilla/5.0 (Windows NT 10.0; Win64; x64) AppleWebKit/537.36 (KHTML, like Gecko) Chrome/115.0.0.0 Safari/537.36" etag="1YEk7zKx2qxG5-X--DGC" version="21.6.6" type="github">
  <diagram name="Page-1" id="5XfJAxB24X9eRlsq6lyk">
    <mxGraphModel dx="538" dy="968" grid="1" gridSize="10" guides="1" tooltips="1" connect="1" arrows="1" fold="1" page="1" pageScale="1" pageWidth="1169" pageHeight="827" math="0" shadow="0">
      <root>
        <mxCell id="0" />
        <mxCell id="1" parent="0" />
        <mxCell id="ODCitCVW3L5HfS4baCy_-8" style="edgeStyle=orthogonalEdgeStyle;rounded=0;orthogonalLoop=1;jettySize=auto;html=1;" edge="1" parent="1" source="ODCitCVW3L5HfS4baCy_-1" target="ODCitCVW3L5HfS4baCy_-2">
          <mxGeometry relative="1" as="geometry" />
        </mxCell>
        <mxCell id="ODCitCVW3L5HfS4baCy_-1" value="&lt;br&gt;Cisco 4221&lt;br&gt;&lt;br&gt;23YV005206(101)&lt;br&gt;227YV005207(251)&lt;br&gt;" style="fontColor=#0066CC;verticalAlign=top;verticalLabelPosition=bottom;labelPosition=center;align=center;html=1;outlineConnect=0;fillColor=#CCCCCC;strokeColor=#6881B3;gradientColor=none;gradientDirection=north;strokeWidth=2;shape=mxgraph.networks.router;" vertex="1" parent="1">
          <mxGeometry x="440" y="140" width="100" height="30" as="geometry" />
        </mxCell>
        <mxCell id="ODCitCVW3L5HfS4baCy_-14" style="edgeStyle=orthogonalEdgeStyle;rounded=0;orthogonalLoop=1;jettySize=auto;html=1;" edge="1" parent="1" source="ODCitCVW3L5HfS4baCy_-2">
          <mxGeometry relative="1" as="geometry">
            <mxPoint x="490" y="460" as="targetPoint" />
          </mxGeometry>
        </mxCell>
        <mxCell id="ODCitCVW3L5HfS4baCy_-2" value="&lt;br&gt;Switch-13&lt;br&gt;10.30.0.123&lt;br&gt;" style="fontColor=#0066CC;verticalAlign=top;verticalLabelPosition=bottom;labelPosition=center;align=center;html=1;outlineConnect=0;fillColor=#CCCCCC;strokeColor=#6881B3;gradientColor=none;gradientDirection=north;strokeWidth=2;shape=mxgraph.networks.switch;" vertex="1" parent="1">
          <mxGeometry x="440" y="310" width="100" height="30" as="geometry" />
        </mxCell>
        <mxCell id="ODCitCVW3L5HfS4baCy_-10" style="edgeStyle=orthogonalEdgeStyle;rounded=0;orthogonalLoop=1;jettySize=auto;html=1;entryX=1;entryY=0.5;entryDx=0;entryDy=0;entryPerimeter=0;" edge="1" parent="1" source="ODCitCVW3L5HfS4baCy_-3" target="ODCitCVW3L5HfS4baCy_-4">
          <mxGeometry relative="1" as="geometry" />
        </mxCell>
        <mxCell id="ODCitCVW3L5HfS4baCy_-3" value="&lt;br&gt;4507&lt;br&gt;VLAN 776 NPA" style="fontColor=#0066CC;verticalAlign=top;verticalLabelPosition=bottom;labelPosition=center;align=center;html=1;outlineConnect=0;fillColor=#CCCCCC;strokeColor=#6881B3;gradientColor=none;gradientDirection=north;strokeWidth=2;shape=mxgraph.networks.rack;" vertex="1" parent="1">
          <mxGeometry x="463" y="465" width="50" height="100" as="geometry" />
        </mxCell>
        <mxCell id="ODCitCVW3L5HfS4baCy_-11" style="edgeStyle=orthogonalEdgeStyle;rounded=0;orthogonalLoop=1;jettySize=auto;html=1;" edge="1" parent="1" source="ODCitCVW3L5HfS4baCy_-4" target="ODCitCVW3L5HfS4baCy_-5">
          <mxGeometry relative="1" as="geometry" />
        </mxCell>
        <mxCell id="ODCitCVW3L5HfS4baCy_-4" value="&lt;br&gt;3850" style="fontColor=#0066CC;verticalAlign=top;verticalLabelPosition=bottom;labelPosition=center;align=center;html=1;outlineConnect=0;fillColor=#CCCCCC;strokeColor=#6881B3;gradientColor=none;gradientDirection=north;strokeWidth=2;shape=mxgraph.networks.switch;" vertex="1" parent="1">
          <mxGeometry x="250" y="500" width="100" height="30" as="geometry" />
        </mxCell>
        <mxCell id="ODCitCVW3L5HfS4baCy_-12" style="edgeStyle=orthogonalEdgeStyle;rounded=0;orthogonalLoop=1;jettySize=auto;html=1;entryX=0.5;entryY=0;entryDx=0;entryDy=0;entryPerimeter=0;" edge="1" parent="1" source="ODCitCVW3L5HfS4baCy_-5" target="ODCitCVW3L5HfS4baCy_-6">
          <mxGeometry relative="1" as="geometry" />
        </mxCell>
        <mxCell id="ODCitCVW3L5HfS4baCy_-5" value="&lt;br&gt;MS-2ndRouteSW" style="fontColor=#0066CC;verticalAlign=top;verticalLabelPosition=bottom;labelPosition=center;align=center;html=1;outlineConnect=0;fillColor=#CCCCCC;strokeColor=#6881B3;gradientColor=none;gradientDirection=north;strokeWidth=2;shape=mxgraph.networks.switch;" vertex="1" parent="1">
          <mxGeometry x="60" y="500" width="100" height="30" as="geometry" />
        </mxCell>
        <mxCell id="ODCitCVW3L5HfS4baCy_-13" style="edgeStyle=orthogonalEdgeStyle;rounded=0;orthogonalLoop=1;jettySize=auto;html=1;" edge="1" parent="1" source="ODCitCVW3L5HfS4baCy_-6" target="ODCitCVW3L5HfS4baCy_-7">
          <mxGeometry relative="1" as="geometry" />
        </mxCell>
        <mxCell id="ODCitCVW3L5HfS4baCy_-6" value="&lt;br&gt;SW011&lt;br&gt;1/0/24" style="fontColor=#0066CC;verticalAlign=top;verticalLabelPosition=bottom;labelPosition=center;align=center;html=1;outlineConnect=0;fillColor=#CCCCCC;strokeColor=#6881B3;gradientColor=none;gradientDirection=north;strokeWidth=2;shape=mxgraph.networks.switch;" vertex="1" parent="1">
          <mxGeometry x="60" y="610" width="100" height="30" as="geometry" />
        </mxCell>
        <mxCell id="ODCitCVW3L5HfS4baCy_-7" value="" style="fontColor=#0066CC;verticalAlign=top;verticalLabelPosition=bottom;labelPosition=center;align=center;html=1;outlineConnect=0;fillColor=#CCCCCC;strokeColor=#6881B3;gradientColor=none;gradientDirection=north;strokeWidth=2;shape=mxgraph.networks.pc;" vertex="1" parent="1">
          <mxGeometry x="210" y="750" width="100" height="70" as="geometry" />
        </mxCell>
      </root>
    </mxGraphModel>
  </diagram>
</mxfile>
